Coordinates
version=1
nRows=24
nColumns=34
inDegrees=no

Units are S.I. units (second, meters, Newtons, ...)
If the header above contains a line with 'inDegrees', this indicates whether rotational values are in degrees (yes) or radians (no).

endheader
time	pelvis_tilt	pelvis_list	pelvis_rotation	pelvis_tx	pelvis_ty	pelvis_tz	hip_flexion_r	hip_adduction_r	hip_rotation_r	knee_angle_r	ankle_angle_r	subtalar_angle_r	mtp_angle_r	hip_flexion_l	hip_adduction_l	hip_rotation_l	knee_angle_l	ankle_angle_l	subtalar_angle_l	mtp_angle_l	lumbar_extension	lumbar_bending	lumbar_rotation	arm_flex_r	arm_add_r	arm_rot_r	elbow_flex_r	pro_sup_r	arm_flex_l	arm_add_l	arm_rot_l	elbow_flex_l	pro_sup_l
1.14	0.124287	0.0710183	-0.155939	0.684903	0.910386	-0.231932	-0.421251	-0.170108	-0.175481	0.415937	0.0963834	0.265875	-0.0122116	0.269107	0.0616129	-0.139371	0.241516	0.0723804	0.0164456	-0.0122164	-0.430455	-0.306091	-0.0754645	-0.04075	-0.200098	0.137798	0.751479	2.20053	0.0125493	-0.265641	-0.305319	0.676556	2.0268
1.15	0.121706	0.0830162	-0.157421	0.695701	0.911536	-0.231402	-0.395666	-0.185232	-0.162372	0.466179	0.0508553	0.216081	-0.012208	0.266523	0.0746851	-0.137464	0.252063	0.0735428	0.00801052	-0.0122128	-0.430614	-0.332703	-0.0817323	-0.0505817	-0.207006	0.171401	0.748822	2.21051	0.0217182	-0.268862	-0.310903	0.679532	2.03175
1.16	0.117502	0.092918	-0.160019	0.706231	0.912623	-0.230838	-0.364319	-0.198085	-0.146538	0.521117	0.00402233	0.162109	-0.0122044	0.263974	0.0856105	-0.134202	0.259171	0.0749068	-0.00161229	-0.0122092	-0.429195	-0.356836	-0.0863203	-0.0587001	-0.216146	0.208656	0.748572	2.21929	0.03059	-0.271476	-0.316195	0.683651	2.03689
1.17	0.111743	0.100999	-0.163697	0.716471	0.913617	-0.230252	-0.327535	-0.208938	-0.129	0.579973	-0.0419715	0.105846	-0.0122009	0.261673	0.0946163	-0.13023	0.26314	0.0764142	-0.0120854	-0.0122055	-0.42616	-0.378681	-0.0896301	-0.0649792	-0.226981	0.247845	0.750572	2.22625	0.0390089	-0.273621	-0.321025	0.688916	2.04202
1.18	0.104627	0.107656	-0.16837	0.726411	0.9145	-0.229651	-0.28595	-0.218149	-0.110705	0.641729	-0.0846355	0.0492206	-0.0121973	0.259773	0.102041	-0.126268	0.264492	0.0781839	-0.0228973	-0.0122019	-0.421626	-0.398574	-0.0921044	-0.0694446	-0.238814	0.286869	0.754453	2.23103	0.0468825	-0.275485	-0.325196	0.695232	2.04707
1.19	0.0964993	0.113311	-0.173922	0.736053	0.915273	-0.229037	-0.240519	-0.226055	-0.0924098	0.705164	-0.121433	-0.00599171	-0.0121938	0.258259	0.108252	-0.123023	0.263835	0.0804471	-0.0333909	-0.0121983	-0.415884	-0.416913	-0.0941507	-0.0722785	-0.250846	0.323444	0.759663	2.23353	0.0541873	-0.277284	-0.328501	0.70242	2.05209
1.2	0.0878105	0.118313	-0.180193	0.745413	0.915955	-0.228406	-0.192427	-0.232867	-0.0746458	0.768933	-0.150133	-0.0583089	-0.0121902	0.25694	0.113553	-0.121077	0.261771	0.083468	-0.0428372	-0.0121947	-0.409364	-0.434061	-0.0960987	-0.0737937	-0.262252	0.355326	0.765541	2.23392	0.0609674	-0.279237	-0.330741	0.710241	2.05721
1.21	0.0790421	0.122883	-0.186959	0.754509	0.916556	-0.227756	-0.142963	-0.238621	-0.0577536	0.831664	-0.169143	-0.106608	-0.0121867	0.255509	0.118146	-0.120793	0.258834	0.087461	-0.0505501	-0.0121911	-0.402574	-0.450259	-0.098191	-0.0743885	-0.272265	0.380536	0.771398	2.23255	0.067323	-0.281542	-0.33175	0.718434	2.06261
1.22	0.0706284	0.127085	-0.193918	0.763379	0.917129	-0.227085	-0.0933751	-0.243192	-0.0419624	0.892055	-0.177767	-0.150125	-0.0121831	0.253625	0.122116	-0.122235	0.255455	0.0925214	-0.0560144	-0.0121875	-0.396022	-0.465587	-0.100598	-0.0744895	-0.280254	0.397566	0.776619	2.22987	0.0733894	-0.284337	-0.331413	0.726744	2.06842
1.23	0.0628907	0.130855	-0.200703	0.772063	0.917719	-0.2264	-0.0447584	-0.246357	-0.0274728	0.948945	-0.176324	-0.188414	-0.0121796	0.250991	0.125469	-0.125152	0.25194	0.0985884	-0.058992	-0.0121839	-0.390152	-0.479959	-0.103441	-0.0744965	-0.285783	0.405514	0.780737	2.22636	0.0793122	-0.287688	-0.329677	0.734955	2.07471
1.24	0.0560071	0.134044	-0.2069	0.780602	0.918361	-0.225717	0.00201948	-0.247876	-0.0145121	1.00137	-0.166088	-0.221266	-0.0121761	0.247408	0.128165	-0.129001	0.248481	0.105447	-0.0595735	-0.0121803	-0.385297	-0.493157	-0.106814	-0.0747339	-0.288653	0.404171	0.783488	2.22238	0.0852218	-0.291571	-0.326567	0.742905	2.08139
1.25	0.0500165	0.136472	-0.212089	0.789035	0.919075	-0.225064	0.0463482	-0.247575	-0.00335135	1.04859	-0.149062	-0.248631	-0.0121725	0.242787	0.130168	-0.133035	0.245163	0.112771	-0.0581606	-0.0121767	-0.381658	-0.50489	-0.110795	-0.0754188	-0.288914	0.394018	0.784825	2.21822	0.0912149	-0.295876	-0.322179	0.750494	2.08832
1.26	0.0448461	0.137976	-0.215899	0.797399	0.919869	-0.224472	0.087869	-0.245406	0.00571672	1.09008	-0.127617	-0.270525	-0.012169	0.237142	0.131471	-0.136422	0.241987	0.120188	-0.0553835	-0.0121731	-0.379309	-0.514857	-0.115444	-0.0766458	-0.286836	0.376167	0.784897	2.21401	0.0973418	-0.300424	-0.316683	0.757677	2.09523
1.27	0.0403539	0.138447	-0.218045	0.805725	0.920735	-0.223972	0.126444	-0.241472	0.0124254	1.12554	-0.104093	-0.286962	-0.0121655	0.230561	0.132114	-0.138382	0.238902	0.127361	-0.0519718	-0.0121695	-0.378208	-0.522819	-0.120797	-0.0783919	-0.282876	0.352227	0.783997	2.20977	0.103604	-0.304994	-0.310307	0.764455	2.10185
1.28	0.0363736	0.137855	-0.218377	0.814038	0.921658	-0.22359	0.162113	-0.236023	0.01659	1.15486	-0.0804362	-0.297904	-0.0121619	0.22317	0.132175	-0.138323	0.235823	0.134049	-0.0486108	-0.0121659	-0.378225	-0.528642	-0.126844	-0.0805369	-0.277604	0.324137	0.782497	2.2054	0.109956	-0.30935	-0.303319	0.770857	2.1079
1.29	0.0327543	0.136255	-0.216893	0.822357	0.922618	-0.223341	0.195036	-0.229422	0.018154	1.17811	-0.0579576	-0.303258	-0.0121584	0.215095	0.131769	-0.135934	0.23266	0.140155	-0.0458146	-0.0121623	-0.379168	-0.532328	-0.133518	-0.0828961	-0.271639	0.293967	0.780787	2.20075	0.116321	-0.313276	-0.296006	0.776928	2.11317
1.3	0.0293895	0.133774	-0.213742	0.830693	0.923592	-0.223229	0.22544	-0.222094	0.0172139	1.19547	-0.0372584	-0.302922	-0.0121549	0.20643	0.131022	-0.131227	0.229327	0.145734	-0.0438454	-0.0121587	-0.380822	-0.534022	-0.140685	-0.0852548	-0.265583	0.263719	0.779213	2.19565	0.1226	-0.3166	-0.288637	0.782716	2.11747
1.31	0.0262292	0.130595	-0.209208	0.839053	0.924558	-0.223244	0.253576	-0.214466	0.0140188	1.2072	-0.0183122	-0.296873	-0.0121514	0.197226	0.130058	-0.124527	0.22575	0.150969	-0.0426893	-0.0121551	-0.382971	-0.533985	-0.148146	-0.0874036	-0.259958	0.235161	0.778045	2.19	0.128689	-0.319212	-0.281438	0.788258	2.12071
1.32	0.0232765	0.126931	-0.203664	0.847435	0.9255	-0.223365	0.279677	-0.206915	0.00894556	1.21363	-0.000668813	-0.285269	-0.0121479	0.187484	0.128986	-0.116398	0.221872	0.156118	-0.0420915	-0.0121515	-0.385419	-0.532565	-0.155648	-0.0891659	-0.255173	0.209682	0.777459	2.18378	0.134495	-0.321067	-0.274563	0.793578	2.12285
1.33	0.0205728	0.122993	-0.19753	0.855838	0.926402	-0.223563	0.303944	-0.199721	0.00245804	1.21509	0.0162882	-0.268556	-0.0121444	0.177168	0.127888	-0.107536	0.217651	0.161454	-0.0416409	-0.0121479	-0.388005	-0.530142	-0.162905	-0.0904147	-0.251497	0.188226	0.777533	2.17711	0.139949	-0.322182	-0.268078	0.798673	2.12395
1.34	0.0181746	0.118972	-0.191221	0.864255	0.927252	-0.223809	0.326536	-0.193045	-0.00494104	1.21189	0.0330981	-0.247525	-0.0121408	0.16623	0.126817	-0.0986458	0.213059	0.167194	-0.0408873	-0.0121444	-0.390601	-0.527083	-0.16963	-0.0910791	-0.249055	0.171262	0.778253	2.17023	0.14501	-0.322627	-0.261953	0.803521	2.12414
1.35	0.0161292	0.115018	-0.1851	0.872684	0.928044	-0.22407	0.347576	-0.186919	-0.0127543	1.20432	0.0500512	-0.223309	-0.0121373	0.154635	0.125803	-0.0903161	0.208081	0.173444	-0.0394633	-0.0121408	-0.393114	-0.523707	-0.175559	-0.0911397	-0.247844	0.158825	0.779533	2.16349	0.149669	-0.322507	-0.256079	0.808078	2.12361
1.36	0.0144529	0.111241	-0.179451	0.88112	0.928766	-0.224319	0.367166	-0.181268	-0.0205235	1.19264	0.067116	-0.197311	-0.0121338	0.142385	0.124859	-0.0829356	0.202711	0.180165	-0.0371856	-0.0121372	-0.395471	-0.520255	-0.180476	-0.0906169	-0.247749	0.150591	0.781227	2.15729	0.153944	-0.32195	-0.250286	0.812294	2.12265
1.37	0.0131178	0.107708	-0.174458	0.889559	0.929411	-0.224535	0.385404	-0.175936	-0.0278506	1.17705	0.083967	-0.171062	-0.0121303	0.129541	0.123997	-0.0766472	0.19696	0.18717	-0.0341132	-0.0121336	-0.39761	-0.516889	-0.184238	-0.0895563	-0.248576	0.145983	0.783149	2.15199	0.157873	-0.321088	-0.244372	0.816118	2.12154
